<?xml version="1.0" encoding="UTF-8" standalone="no"?>
<!-- Created with Inkscape (http://www.inkscape.org/) -->

<svg
   width="143.14165mm"
   height="46.494915mm"
   viewBox="0 0 143.14165 46.494915"
   version="1.1"
   id="svg5"
   inkscape:version="1.2.1 (9c6d41e410, 2022-07-14)"
   sodipodi:docname="logo.svg"
   xmlns:inkscape="http://www.inkscape.org/namespaces/inkscape"
   xmlns:sodipodi="http://sodipodi.sourceforge.net/DTD/sodipodi-0.dtd"
   xmlns="http://www.w3.org/2000/svg"
   xmlns:svg="http://www.w3.org/2000/svg">
  <sodipodi:namedview
     id="namedview7"
     pagecolor="#505050"
     bordercolor="#eeeeee"
     borderopacity="1"
     inkscape:showpageshadow="0"
     inkscape:pageopacity="0"
     inkscape:pagecheckerboard="0"
     inkscape:deskcolor="#505050"
     inkscape:document-units="mm"
     showgrid="false"
     inkscape:zoom="0.71624579"
     inkscape:cx="502.62075"
     inkscape:cy="133.33412"
     inkscape:window-width="1920"
     inkscape:window-height="991"
     inkscape:window-x="-9"
     inkscape:window-y="-9"
     inkscape:window-maximized="1"
     inkscape:current-layer="layer1" />
  <defs
     id="defs2">
    <rect
       x="76.789284"
       y="354.62686"
       width="531.94031"
       height="154.97473"
       id="rect113" />
    <rect
       x="76.789284"
       y="354.62686"
       width="531.94031"
       height="154.97473"
       id="rect113-0" />
    <rect
       x="76.789284"
       y="354.62686"
       width="531.94031"
       height="154.97473"
       id="rect113-0-0" />
  </defs>
  <g
     inkscape:label="Calque 1"
     inkscape:groupmode="layer"
     id="layer1"
     transform="translate(-17.7621,-137.39507)">
    <rect
       style="fill:#ffffff;fill-opacity:1;stroke:none;stroke-width:0.264583;stroke-opacity:1"
       id="rect3510"
       width="143.14165"
       height="46.494915"
       x="17.7621"
       y="137.39507"
       ry="10.709501" />
    <text
       xml:space="preserve"
       transform="matrix(0.62300927,0,0,0.62300927,-159.09387,-169.94432)"
       id="text111"
       style="font-size:42.6667px;white-space:pre;shape-inside:url(#rect113);fill:#c10400;fill-opacity:1"><tspan
         x="76.789062"
         y="393.55308"
         id="tspan4499"><tspan
           style="font-family:'Eras Bold ITC';-inkscape-font-specification:'Eras Bold ITC'"
           id="tspan4497">ravière</tspan></tspan></text>
    <text
       xml:space="preserve"
       transform="matrix(0.62300927,0,-0.21970668,0.62300927,93.711044,-70.070936)"
       id="text111-9"
       style="font-size:42.6667px;white-space:pre;shape-inside:url(#rect113-0);fill:#c10400;fill-opacity:1"><tspan
         x="76.789062"
         y="393.55308"
         id="tspan4503"><tspan
           style="font-family:'Eras Bold ITC';-inkscape-font-specification:'Eras Bold ITC'"
           id="tspan4501">ravière</tspan></tspan></text>
    <text
       xml:space="preserve"
       transform="matrix(0.62300927,0,-0.10985334,0.62300927,61.007684,-76.868192)"
       id="text111-9-6"
       style="font-size:15.8549px;white-space:pre;shape-inside:url(#rect113-0-0);fill:#000400;fill-opacity:1"><tspan
         x="76.789062"
         y="369.09186"
         id="tspan4507"><tspan
           style="font-family:'Eras Bold ITC';-inkscape-font-specification:'Eras Bold ITC'"
           id="tspan4505">cubage - rapport</tspan></tspan></text>
    <g
       id="g2481"
       transform="translate(-166.12788,-35.001786)">
      <circle
         id="path2118"
         style="fill:#c10435;fill-opacity:1;stroke:none;stroke-width:0.264583"
         cx="36.062965"
         cy="79.375465"
         r="0.0061505148" />
      <circle
         id="path2120"
         style="fill:#c10435;fill-opacity:1;stroke:none;stroke-width:0.264583"
         cx="46.775654"
         cy="79.375465"
         r="0.0061505148" />
      <circle
         id="path2122"
         style="fill:#c10435;fill-opacity:1;stroke:none;stroke-width:0.264583"
         cx="52.131996"
         cy="81.222481"
         r="0.0061505148" />
      <circle
         id="path2124"
         style="fill:#c10435;fill-opacity:1;stroke:none;stroke-width:0.264583"
         cx="52.270519"
         cy="82.284508"
         r="0.0061505148" />
      <circle
         id="path2126"
         style="fill:#c10435;fill-opacity:1;stroke:none;stroke-width:0.264583"
         cx="31.260727"
         cy="82.423042"
         r="0.0061505148" />
      <path
         style="fill:#c10435;fill-opacity:1;stroke:none;stroke-width:0.264583;stroke-opacity:1"
         d="m 31.306902,80.6222 4.80224,-1.154383 10.666511,-0.04618 5.356344,1.431438 v 1.47761 c 0,0 -23.687969,-0.09235 -23.503266,-0.138525 0.184701,-0.04617 2.031717,-1.154385 2.031717,-1.154385 z"
         id="path2130" />
      <path
         style="fill:#c10435;fill-opacity:1;stroke:none;stroke-width:0.264583;stroke-opacity:1"
         d="m 26.089086,84.13153 1.015857,-0.92351 25.119404,0.04618 0.09235,2.909046 -27.9361,-0.09235 z"
         id="path2132" />
      <path
         style="fill:#c10435;fill-opacity:1;stroke:none;stroke-width:0.264583;stroke-opacity:1"
         d="m 22.810634,88.610539 0.738806,-1.339085 12.513527,0.09235 -1.847016,1.292911 -1.339086,1.523788 -10.666511,-0.138525 z"
         id="path2134" />
      <path
         style="fill:#c10435;fill-opacity:1;stroke:none;stroke-width:0.264583;stroke-opacity:1"
         d="m 21.194496,92.951026 0.461754,-1.385263 10.389459,-0.04618 -0.692632,1.847017 -0.230875,1.108207 H 21.102145 Z"
         id="path2136" />
      <path
         style="fill:#c10435;fill-opacity:1;stroke:none;stroke-width:0.264583;stroke-opacity:1"
         d="m 20.963619,95.9986 h 10.020057 l -0.04618,1.477611 0.184703,1.339085 h -9.927706 z"
         id="path2138" />
      <path
         style="fill:#c10435;fill-opacity:1;stroke:none;stroke-width:0.264583;stroke-opacity:1"
         d="m 21.517724,100.56996 1.108209,2.8167 11.128264,-0.13853 -1.154385,-1.24673 -1.015857,-1.43144 h -9.88153 z"
         id="path2140" />
      <path
         style="fill:#c10435;fill-opacity:1;stroke:none;stroke-width:0.264583;stroke-opacity:1"
         d="m 23.364738,104.86427 1.569963,1.84702 0.969683,1.01586 h 26.550838 l 0.138528,-2.95523 z"
         id="path2142" />
      <path
         style="fill:#c10435;fill-opacity:1;stroke:none;stroke-width:0.264583;stroke-opacity:1"
         d="m 27.474346,108.78918 24.934701,-0.0462 -0.04617,1.29291 -6.187498,0.73881 -7.711289,0.13852 -6.741605,-0.3694 -2.631995,-0.96968 z"
         id="path2144" />
      <path
         style="fill:#c10435;fill-opacity:1;stroke:none;stroke-width:0.264583;stroke-opacity:1"
         d="m 43.543376,103.34048 0.184703,-2.81669 9.050371,0.0923 -0.138525,2.77052 z"
         id="path2146" />
      <path
         style="fill:#c10435;fill-opacity:1;stroke:none;stroke-width:0.264583;stroke-opacity:1"
         d="m 39.664645,98.907649 0.184703,-2.816699 h 13.298506 l -0.323229,2.770524 z"
         id="path2148" />
      <path
         style="fill:#c10435;fill-opacity:1;stroke:none;stroke-width:0.264583;stroke-opacity:1"
         d="m 39.71082,94.720174 0.369403,-2.666568 13.429113,0.215027 -0.361482,2.636239 z"
         id="path2150"
         sodipodi:nodetypes="ccccc" />
    </g>
    <g
       id="g2463"
       transform="translate(13.321575,25.337114)">
      <ellipse
         id="path2118-0"
         style="fill:#c10435;fill-opacity:1;stroke:none;stroke-width:0.272261"
         cx="72.635284"
         cy="125.6485"
         rx="0.0061505148"
         ry="0.0065126754"
         transform="matrix(1,0,-0.32882334,0.94439145,0,0)" />
      <ellipse
         id="path2120-5"
         style="fill:#c10435;fill-opacity:1;stroke:none;stroke-width:0.272261"
         cx="83.347954"
         cy="125.6485"
         rx="0.0061505148"
         ry="0.0065126754"
         transform="matrix(1,0,-0.32882334,0.94439145,0,0)" />
      <ellipse
         id="path2122-9"
         style="fill:#c10435;fill-opacity:1;stroke:none;stroke-width:0.272261"
         cx="88.704292"
         cy="127.60423"
         rx="0.0061505148"
         ry="0.0065126754"
         transform="matrix(1,0,-0.32882334,0.94439145,0,0)" />
      <ellipse
         id="path2124-6"
         style="fill:#c10435;fill-opacity:1;stroke:none;stroke-width:0.272261"
         cx="88.842819"
         cy="128.72882"
         rx="0.0061505148"
         ry="0.0065126754"
         transform="matrix(1,0,-0.32882334,0.94439145,0,0)" />
      <ellipse
         id="path2126-4"
         style="fill:#c10435;fill-opacity:1;stroke:none;stroke-width:0.272261"
         cx="67.833038"
         cy="128.87552"
         rx="0.0061505148"
         ry="0.0065126754"
         transform="matrix(1,0,-0.32882334,0.94439145,0,0)" />
      <path
         style="fill:#c10435;fill-opacity:1;stroke:none;stroke-width:0.264583;stroke-opacity:1"
         d="m 26.128971,119.90809 5.204183,-1.15439 c 3.94898,-0.61417 7.531629,-0.66318 10.682595,-0.0462 l 4.857939,1.43144 -0.514483,1.47761 c 0,0 -23.655831,-0.0923 -23.455032,-0.13852 0.200786,-0.0462 2.433655,-1.15439 2.433655,-1.15439 z"
         id="path2130-6"
         sodipodi:nodetypes="cccccscc" />
      <path
         style="fill:#c10435;fill-opacity:1;stroke:none;stroke-width:0.264583;stroke-opacity:1"
         d="m 19.689257,123.41742 1.337411,-0.92351 25.103318,0.0462 -0.92054,2.90904 -27.903962,-0.0923 z"
         id="path2132-6" />
      <path
         style="fill:#c10435;fill-opacity:1;stroke:none;stroke-width:0.264583;stroke-opacity:1"
         d="m 14.85128,127.89643 1.205056,-1.33909 12.481391,0.0923 -2.297189,1.29291 -1.869648,1.52379 -10.618275,-0.13853 z"
         id="path2134-3" />
      <path
         style="fill:#c10435;fill-opacity:1;stroke:none;stroke-width:0.264583;stroke-opacity:1"
         d="m 11.723848,132.23691 0.944084,-1.38526 10.405544,-0.0462 -1.335736,1.84702 -0.616733,1.1082 H 11.100946 Z"
         id="path2136-8" />
      <path
         style="fill:#c10435;fill-opacity:1;stroke:none;stroke-width:0.264583;stroke-opacity:1"
         d="m 10.431851,135.28449 h 10.020057 l -0.560668,1.47761 -0.28155,1.33908 H 9.6819839 Z"
         id="path2138-3" />
      <path
         style="fill:#c10435;fill-opacity:1;stroke:none;stroke-width:0.264583;stroke-opacity:1"
         d="m 9.3942739,139.85585 0.127473,2.8167 11.1765021,-0.13853 -0.720296,-1.24673 -0.517454,-1.43144 H 9.5789689 Z"
         id="path2140-2" />
      <path
         style="fill:#c10435;fill-opacity:1;stroke:none;stroke-width:0.264583;stroke-opacity:1"
         d="m 9.7460719,144.15016 0.9268571,1.84702 0.615982,1.01586 h 26.550838 l 1.167493,-2.95523 z"
         id="path2142-0" />
      <path
         style="fill:#c10435;fill-opacity:1;stroke:none;stroke-width:0.264583;stroke-opacity:1"
         d="m 12.489083,148.07507 24.950788,-0.0462 -0.496352,1.29291 -6.444742,0.73881 -7.759518,0.13852 -6.612983,-0.3694 -2.294368,-0.96968 z"
         id="path2144-0" />
      <path
         style="fill:#c10435;fill-opacity:1;stroke:none;stroke-width:0.264583;stroke-opacity:1"
         d="m 30.455273,142.62637 1.165474,-2.81669 9.018233,0.0923 -1.103179,2.77052 z"
         id="path2146-8" />
      <path
         style="fill:#c10435;fill-opacity:1;stroke:none;stroke-width:0.264583;stroke-opacity:1"
         d="m 28.119988,138.19354 1.165479,-2.8167 h 13.298462 l -1.287883,2.77052 z"
         id="path2148-1" />
      <path
         style="fill:#c10435;fill-opacity:1;stroke:none;stroke-width:0.264583;stroke-opacity:1"
         d="m 29.62418,134.00606 1.29786,-2.66657 13.354246,0.21503 -1.279385,2.63624 z"
         id="path2150-1"
         sodipodi:nodetypes="ccccc" />
    </g>
  </g>
</svg>
